<svg width="155" height="28" viewBox="0 0 155 28" fill="none" xmlns="http://www.w3.org/2000/svg">
<path d="M11.0907 0.35376H17.3179V18.4471C17.3104 20.1654 16.9278 21.6775 16.1702 22.9834C15.4202 24.2807 14.3823 25.2944 13.0566 26.0247C11.7384 26.7464 10.2195 27.1072 8.49976 27.1072C7.00734 27.1072 5.6437 26.8151 4.40885 26.2309C3.174 25.6381 2.18915 24.7102 1.45431 23.4473C0.719458 22.1758 0.355821 20.5262 0.363397 18.4987H6.68158C6.70431 19.1602 6.80279 19.7186 6.97703 20.174C7.15885 20.6293 7.40885 20.973 7.72703 21.205C8.05279 21.4283 8.44673 21.54 8.90885 21.54C9.37855 21.54 9.77249 21.424 10.0907 21.1921C10.4164 20.9601 10.6626 20.6164 10.8293 20.1611C10.996 19.6972 11.0831 19.1258 11.0907 18.4471V0.35376Z" fill="white"/>
<path d="M37.285 0.35376H43.6032V17.2615C43.6032 19.2719 43.1789 21.0116 42.3304 22.4808C41.4895 23.9413 40.3153 25.0711 38.8077 25.87C37.3001 26.6605 35.5501 27.0557 33.5577 27.0557C31.5501 27.0557 29.7926 26.6605 28.285 25.87C26.7774 25.0711 25.6032 23.9413 24.7623 22.4808C23.9289 21.0116 23.5123 19.2719 23.5123 17.2615V0.35376H29.8304V16.6429C29.8304 17.4591 29.9895 18.1894 30.3077 18.8337C30.6259 19.4695 31.0653 19.9678 31.6259 20.3286C32.1941 20.6895 32.838 20.8699 33.5577 20.8699C34.285 20.8699 34.9289 20.6895 35.4895 20.3286C36.0501 19.9678 36.4895 19.4695 36.8077 18.8337C37.1259 18.1894 37.285 17.4591 37.285 16.6429V0.35376Z" fill="white"/>
<path d="M49.806 26.7464V0.35376H59.8515C61.5787 0.35376 63.0901 0.74037 64.3856 1.51359C65.681 2.28681 66.6886 3.37362 67.4083 4.77401C68.128 6.1744 68.4878 7.81105 68.4878 9.68396C68.4878 11.5741 68.1166 13.2107 67.3742 14.5939C66.6393 15.9771 65.6053 17.0424 64.2719 17.7899C62.9462 18.5373 61.3969 18.9111 59.6242 18.9111H53.6242V13.3439H58.3515C59.0939 13.3439 59.7265 13.1978 60.2492 12.9057C60.7795 12.605 61.1848 12.1797 61.4651 11.6299C61.753 11.0801 61.8969 10.4314 61.8969 9.68396C61.8969 8.92792 61.753 8.28357 61.4651 7.75091C61.1848 7.20965 60.7795 6.79727 60.2492 6.51375C59.7265 6.22165 59.0939 6.07559 58.3515 6.07559H56.1242V26.7464H49.806Z" fill="white"/>
<path d="M80.3242 0.35376V26.7464H74.006V0.35376H80.3242Z" fill="white"/>
<path d="M85.8821 6.12714V0.35376H106.109V6.12714H99.1094V26.7464H92.8821V6.12714H85.8821Z" fill="white"/>
<path d="M111.687 26.7464V0.35376H128.46V6.12714H118.005V10.6634H127.596V16.4368H118.005V20.973H128.415V26.7464H111.687Z" fill="white"/>
<path d="M134.794 26.7464V0.35376H144.839C146.566 0.35376 148.078 0.710301 149.373 1.42338C150.669 2.13646 151.676 3.16313 152.396 4.50338C153.115 5.84363 153.475 7.45021 153.475 9.32312C153.475 11.2132 153.104 12.8069 152.362 14.1042C151.627 15.4015 150.593 16.3809 149.259 17.0424C147.934 17.704 146.384 18.0347 144.612 18.0347H138.612V12.4676H143.339C144.081 12.4676 144.714 12.3645 145.237 12.1583C145.767 11.9435 146.172 11.6041 146.453 11.1402C146.74 10.6763 146.884 10.0706 146.884 9.32312C146.884 8.56708 146.74 7.9528 146.453 7.48028C146.172 6.99916 145.767 6.64692 145.237 6.42354C144.714 6.19158 144.081 6.07559 143.339 6.07559H141.112V26.7464H134.794ZM148.43 14.6326L154.248 26.7464H147.384L141.703 14.6326H148.43Z" fill="white"/>
</svg>
